<svg id="Layer_1" data-name="Layer 1" xmlns="http://www.w3.org/2000/svg" viewBox="0 0 1309.76 200"><defs><style>.cls-1,.cls-3{fill:#231f20;}.cls-1,.cls-2{fill-rule:evenodd;}.cls-2,.cls-5{fill:#00b6e4;}.cls-4{fill:#d81671;}</style></defs><title>Main logo 200px</title><path class="cls-1" d="M23.82,50.46H43.73V72.85H32a8.31,8.31,0,0,0-8.29,8.29v59.12A8.31,8.31,0,0,0,32,148.55H91.11a8.31,8.31,0,0,0,8.28-8.29V81.14a8.31,8.31,0,0,0-8.28-8.29H76.75V50.46H99.27A22.58,22.58,0,0,1,121.78,73v75.45a22.58,22.58,0,0,1-22.51,22.52H30.5L1.31,200V73A22.58,22.58,0,0,1,23.82,50.46Z"/><path class="cls-2" d="M147,0H71.56A22.58,22.58,0,0,0,49.05,22.51V98a22.58,22.58,0,0,0,22.51,22.51H94.07V98.08H79.72a8.3,8.3,0,0,1-8.28-8.28V30.67a8.31,8.31,0,0,1,8.28-8.28h59.13a8.31,8.31,0,0,1,8.28,8.28V89.8a8.3,8.3,0,0,1-8.28,8.28H127.1v22.39H147l22.51,17.93V22.51A22.58,22.58,0,0,0,147,0Z"/><path class="cls-3" d="M219.7,172.23V44.87h14.13a7,7,0,0,1,3.84,1,4.86,4.86,0,0,1,2.06,3.19L241.6,58a48.61,48.61,0,0,1,13.33-10.77,36.26,36.26,0,0,1,17.64-4.11,31.49,31.49,0,0,1,14.36,3.27,32.26,32.26,0,0,1,11.23,9.5,45.43,45.43,0,0,1,7.3,15.35A77,77,0,0,1,308,92.13a65.57,65.57,0,0,1-2.91,19.93A48.67,48.67,0,0,1,296.85,128a38.37,38.37,0,0,1-13,10.53,38,38,0,0,1-17.08,3.78,34.37,34.37,0,0,1-13.8-2.47,33.82,33.82,0,0,1-10.15-6.88v39.3ZM264.62,61.34a23.59,23.59,0,0,0-12.31,3A35.4,35.4,0,0,0,242.82,73v43a21.85,21.85,0,0,0,8.56,6.78,25.77,25.77,0,0,0,10,1.92,22.42,22.42,0,0,0,9.5-2,18.39,18.39,0,0,0,7.2-6,29.54,29.54,0,0,0,4.54-10.15,58.06,58.06,0,0,0,1.6-14.46,64.4,64.4,0,0,0-1.36-14.27,27.63,27.63,0,0,0-3.89-9.5A15.29,15.29,0,0,0,272.81,63,19.22,19.22,0,0,0,264.62,61.34Z"/><path class="cls-3" d="M366.52,43.38A52.62,52.62,0,0,1,386,46.84,42,42,0,0,1,401,56.67,43.52,43.52,0,0,1,410.5,72.2a59.19,59.19,0,0,1,3.36,20.49,59.57,59.57,0,0,1-3.36,20.59A44.45,44.45,0,0,1,401,128.9,41.32,41.32,0,0,1,386,138.82a56.88,56.88,0,0,1-39.07,0,41.71,41.71,0,0,1-15-9.92,44.63,44.63,0,0,1-9.64-15.62,58.85,58.85,0,0,1-3.41-20.59A58.48,58.48,0,0,1,322.3,72.2a43.71,43.71,0,0,1,9.64-15.53,42.43,42.43,0,0,1,15-9.83A52.92,52.92,0,0,1,366.52,43.38Zm0,81.13q12,0,17.73-8.05T390,92.88q0-15.54-5.75-23.68t-17.73-8.14q-12.16,0-18,8.19t-5.8,23.63q0,15.44,5.8,23.53T366.52,124.51Z"/><path class="cls-3" d="M456.53,1.83v139H433.42V1.83Z"/><path class="cls-4" d="M510.71,16.9a13,13,0,0,1-1.22,5.61,15.39,15.39,0,0,1-3.22,4.59,15.54,15.54,0,0,1-4.73,3.13,14.49,14.49,0,0,1-5.8,1.17,13.92,13.92,0,0,1-5.66-1.17,15,15,0,0,1-4.63-3.13,15.16,15.16,0,0,1-3.14-4.59,13.59,13.59,0,0,1-1.17-5.61,14.57,14.57,0,0,1,1.17-5.81,14.74,14.74,0,0,1,7.77-7.81,13.92,13.92,0,0,1,5.66-1.17,14.49,14.49,0,0,1,5.8,1.17,15.57,15.57,0,0,1,4.73,3.14,15.14,15.14,0,0,1,3.22,4.67A14,14,0,0,1,510.71,16.9Z"/><rect class="cls-3" x="484.14" y="44.87" width="23.11" height="96.01"/><path class="cls-3" d="M600.82,65.18a11.63,11.63,0,0,1-2,2.06A4.65,4.65,0,0,1,596,68a6.37,6.37,0,0,1-3.47-1.08c-1.12-.71-2.46-1.53-4-2.43a29.35,29.35,0,0,0-5.57-2.43,25.49,25.49,0,0,0-8-1.08,24.36,24.36,0,0,0-10.67,2.2,20.1,20.1,0,0,0-7.62,6.32,28.37,28.37,0,0,0-4.54,10,53.41,53.41,0,0,0-1.5,13.24,51.93,51.93,0,0,0,1.64,13.66,29.07,29.07,0,0,0,4.73,10.06,20.27,20.27,0,0,0,7.48,6.18,22.74,22.74,0,0,0,9.92,2.1,24.64,24.64,0,0,0,8.93-1.35,28.54,28.54,0,0,0,5.76-3q2.34-1.64,4.07-3A6.12,6.12,0,0,1,597,116a4.71,4.71,0,0,1,4.22,2.15l6.64,8.42a41.65,41.65,0,0,1-8.33,7.54A45,45,0,0,1,590.2,139a47.14,47.14,0,0,1-10,2.58,72,72,0,0,1-10.19.74A42.47,42.47,0,0,1,553.29,139a39,39,0,0,1-13.71-9.68,46.74,46.74,0,0,1-9.27-15.58,60.4,60.4,0,0,1-3.41-21,61,61,0,0,1,3-19.6,44.49,44.49,0,0,1,8.94-15.63,40.9,40.9,0,0,1,14.59-10.34,50.4,50.4,0,0,1,20-3.74,47.57,47.57,0,0,1,18.85,3.46,45.92,45.92,0,0,1,14.55,9.92Z"/><path class="cls-3" d="M656.68,167.27A8.86,8.86,0,0,1,654,171a8.14,8.14,0,0,1-5,1.27H631.79l18-38.46-38.83-88.9h20.21a6.35,6.35,0,0,1,4.3,1.31,8.71,8.71,0,0,1,2.25,3L658.18,99A45.62,45.62,0,0,1,660,104c.5,1.75.93,3.5,1.31,5.24.5-1.81,1-3.55,1.63-5.24s1.24-3.4,1.92-5.14L684.1,49.18a6.77,6.77,0,0,1,2.48-3.09,6.6,6.6,0,0,1,3.88-1.22H709Z"/><path class="cls-5" d="M793.39,140.88H786a8.82,8.82,0,0,1-3.93-.75,4.16,4.16,0,0,1-2-3.18l-1.87-8.8c-2.49,2.25-4.93,4.26-7.29,6a41.63,41.63,0,0,1-7.49,4.49,38.31,38.31,0,0,1-8.38,2.76,47.54,47.54,0,0,1-9.87.94,33.67,33.67,0,0,1-10.34-1.55,23.44,23.44,0,0,1-8.37-4.65,22,22,0,0,1-5.66-7.84,27.36,27.36,0,0,1-2.11-11.22,21,21,0,0,1,3.09-10.84q3.09-5.22,10-9.25t18-6.62q11.13-2.58,27.23-2.59V80.39q0-11.11-4.73-16.81t-14-5.7a29.59,29.59,0,0,0-10.24,1.55,38.14,38.14,0,0,0-7.21,3.46c-2,1.28-3.77,2.43-5.24,3.46a7.56,7.56,0,0,1-4.35,1.54,5,5,0,0,1-3-.89,6.78,6.78,0,0,1-2-2.19l-3-5.34a54.24,54.24,0,0,1,16.93-11.32,52.4,52.4,0,0,1,20.12-3.74A35.86,35.86,0,0,1,774.49,47a28.9,28.9,0,0,1,10.39,7.3,31.07,31.07,0,0,1,6.36,11.32,47.29,47.29,0,0,1,2.15,14.6Zm-43.23-10.2a33.64,33.64,0,0,0,8.05-.89,31.73,31.73,0,0,0,6.88-2.52,36.8,36.8,0,0,0,6.17-4A53.58,53.58,0,0,0,777,118V98.4a112,112,0,0,0-19.56,1.46,54.39,54.39,0,0,0-13.1,3.81,18.32,18.32,0,0,0-7.35,5.55,12,12,0,0,0-2.29,7.16,15.86,15.86,0,0,0,1.22,6.49,12.3,12.3,0,0,0,3.27,4.47,12.88,12.88,0,0,0,4.87,2.54A22.24,22.24,0,0,0,750.16,130.68Z"/><path class="cls-5" d="M885.37,140.88a4.24,4.24,0,0,1-4.49-3.46l-1.5-11.51a49.89,49.89,0,0,1-13.89,11.84,35.63,35.63,0,0,1-17.92,4.44,34.15,34.15,0,0,1-14.78-3.13,30.74,30.74,0,0,1-11.33-9.22,43.78,43.78,0,0,1-7.2-15.16,77.83,77.83,0,0,1-2.53-20.87,65.48,65.48,0,0,1,2.81-19.51,47.59,47.59,0,0,1,8.09-15.67,37.15,37.15,0,0,1,30.09-14.22,34.4,34.4,0,0,1,14.88,2.94,35.87,35.87,0,0,1,11,8.29V3.05h16.65V140.88Zm-32.28-12.16A26.77,26.77,0,0,0,867.36,125a41,41,0,0,0,11.28-10.57V68.55a26.43,26.43,0,0,0-10.06-8.66,29.09,29.09,0,0,0-12.12-2.48q-13.29,0-20.4,9.45t-7.11,27a68.48,68.48,0,0,0,1.59,15.86,30.51,30.51,0,0,0,4.68,10.86,18.34,18.34,0,0,0,7.58,6.22A25.42,25.42,0,0,0,853.09,128.72Z"/><path class="cls-5" d="M911.29,46.09H925a5.2,5.2,0,0,1,3.28,1,6,6,0,0,1,1.87,2.43l24,61a45.57,45.57,0,0,1,2.05,6.74q.75,3.38,1.41,6.64.75-3.27,1.59-6.64a56.54,56.54,0,0,1,2.15-6.74l24.33-61a5.62,5.62,0,0,1,1.83-2.48,5,5,0,0,1,3.13-1h13L965,140.88H949.93Z"/><path class="cls-5" d="M1041.36,16.34a10.49,10.49,0,0,1-1,4.53,12.93,12.93,0,0,1-2.62,3.75,12,12,0,0,1-3.79,2.57,11.41,11.41,0,0,1-4.58.94,11.08,11.08,0,0,1-4.54-.94,12.3,12.3,0,0,1-3.74-2.57,12.43,12.43,0,0,1-2.58-3.75,11.06,11.06,0,0,1-.93-4.53,11.8,11.8,0,0,1,.93-4.64,12.19,12.19,0,0,1,2.58-3.83,12.51,12.51,0,0,1,3.74-2.58,11.07,11.07,0,0,1,4.54-.93,11.4,11.4,0,0,1,4.58.93,12.25,12.25,0,0,1,3.79,2.58,12.65,12.65,0,0,1,2.62,3.83A11.18,11.18,0,0,1,1041.36,16.34Zm-3.75,29.75v94.79H1021V46.09Z"/><path class="cls-5" d="M1121.27,61.72a3.7,3.7,0,0,1-3.46,2.06,6.61,6.61,0,0,1-3.19-1c-1.18-.69-2.63-1.45-4.35-2.3a40.16,40.16,0,0,0-6.13-2.33,29.14,29.14,0,0,0-8.42-1.08,24.78,24.78,0,0,0-7.58,1.08,18.22,18.22,0,0,0-5.75,2.94,13.07,13.07,0,0,0-3.65,4.35,11.76,11.76,0,0,0-1.27,5.39,9,9,0,0,0,2.11,6.08,18.34,18.34,0,0,0,5.57,4.21,48.75,48.75,0,0,0,7.86,3.13c2.93.91,5.94,1.87,9,2.9s6.09,2.17,9,3.42a33,33,0,0,1,7.86,4.68,21.43,21.43,0,0,1,5.56,6.87,21,21,0,0,1,2.11,9.78,31,31,0,0,1-2.34,12.12,26.51,26.51,0,0,1-6.92,9.64,33.49,33.49,0,0,1-11.23,6.41,46.15,46.15,0,0,1-15.35,2.34,47.87,47.87,0,0,1-18-3.23,45.34,45.34,0,0,1-13.66-8.28l3.93-6.36a5.63,5.63,0,0,1,1.77-1.88,5.07,5.07,0,0,1,2.72-.65,6.29,6.29,0,0,1,3.55,1.31q1.88,1.3,4.54,2.9a34.73,34.73,0,0,0,6.46,2.9,29.21,29.21,0,0,0,9.5,1.31,26.07,26.07,0,0,0,8.51-1.26,17.93,17.93,0,0,0,6.08-3.42,13.52,13.52,0,0,0,3.6-5,15.38,15.38,0,0,0,1.17-6,10,10,0,0,0-2.1-6.5,18,18,0,0,0-5.57-4.4,46.2,46.2,0,0,0-7.91-3.18q-4.44-1.35-9.07-2.85t-9.08-3.42a31.87,31.87,0,0,1-7.91-4.82,21.82,21.82,0,0,1-5.56-7.16,23,23,0,0,1-2.11-10.34,25.47,25.47,0,0,1,8.8-19.22,32.13,32.13,0,0,1,10.57-6,42.24,42.24,0,0,1,14.32-2.25,45.38,45.38,0,0,1,16.79,2.95,39.89,39.89,0,0,1,12.87,8.1Z"/><path class="cls-5" d="M1186.58,44.59a48.65,48.65,0,0,1,18.76,3.47,39.5,39.5,0,0,1,14.22,9.82,43.55,43.55,0,0,1,9,15.39,61.55,61.55,0,0,1,3.13,20.17,61.37,61.37,0,0,1-3.13,20.21,43.55,43.55,0,0,1-9,15.35,39.15,39.15,0,0,1-14.22,9.78,53.31,53.31,0,0,1-37.52,0,39.52,39.52,0,0,1-14.27-9.78,43.73,43.73,0,0,1-9.08-15.35,60.32,60.32,0,0,1-3.18-20.21,60.5,60.5,0,0,1,3.18-20.17,43.73,43.73,0,0,1,9.08-15.39,39.86,39.86,0,0,1,14.27-9.82A48.61,48.61,0,0,1,1186.58,44.59Zm0,84.59q14,0,21-9.4t6.92-26.25q0-16.94-6.92-26.38t-21-9.46a29.1,29.1,0,0,0-12.35,2.44,23,23,0,0,0-8.75,7,31,31,0,0,0-5.24,11.27,60.17,60.17,0,0,0-1.73,15.11,59.62,59.62,0,0,0,1.73,15.07,30.57,30.57,0,0,0,5.24,11.18,23.19,23.19,0,0,0,8.75,7A29.1,29.1,0,0,0,1186.58,129.18Z"/><path class="cls-5" d="M1252.27,140.88V46.09h9.54c1.81,0,3.06.35,3.74,1a6.3,6.3,0,0,1,1.41,3.56l1.12,14.78a43.31,43.31,0,0,1,12-15.48,26.53,26.53,0,0,1,16.8-5.57,26.1,26.1,0,0,1,7.11.89,24.77,24.77,0,0,1,5.9,2.48l-2.15,12.44a2.82,2.82,0,0,1-2.91,2.34,14.31,14.31,0,0,1-4-.89,25.49,25.49,0,0,0-7.58-.89,21.51,21.51,0,0,0-14.55,5q-5.85,5.06-9.78,14.7v60.35Z"/></svg>