<?xml version="1.0" encoding="UTF-8"?>
<svg id="Layer_2" xmlns="http://www.w3.org/2000/svg" version="1.1" viewBox="0 0 3563.1 3518.5">
  <!-- Generator: Adobe Illustrator 29.3.1, SVG Export Plug-In . SVG Version: 2.1.0 Build 151)  -->
  <defs>
    <style>
      .st0 {
        fill: none;
        stroke: #565656;
        stroke-linecap: round;
        stroke-linejoin: round;
        stroke-width: 121.5px;
      }
    </style>
  </defs>
  <g id="Icons">
    <g id="thumbs_down">
      <rect class="st0" x="2394.4" y="648.7" width="845.3" height="1559.2" rx="173.9" ry="173.9"/>
      <path class="st0" d="M2334.3,2092.3s-169.7,129.1-237.2,211.6l-47,57.5c-16.1,19.7-29.9,40.8-41.5,63.5-106.2,208.5-218.1,441.2-188,670.4h0c8.8,66.8-38.3,130.6-105,140.2-122.8,17.7-305-5.2-369-269.5-24.1-99.6-19-203.9,6.3-303.2,24.3-95.3,61.6-231.1,103.2-344.7H490.6c-114.4,0-207.1-92.7-207.1-207.1s92.7-207.1,207.1-207.1h-39.8c-114.4,0-207.1-92.7-207.1-207.1s92.7-207.1,207.1-207.1h143.3c-114.4,0-207.1-92.7-207.1-207.1s92.7-207.1,207.1-207.1h125.2c-114.4,0-207.1-92.7-207.1-207.1s92.7-207.1,207.1-207.1h1163.1c174.8,0,345.2,55.2,486.8,157.6l25.1,18.2v1212.1l-60.1,42.7h0Z"/>
    </g>
  </g>
</svg>