<?xml version="1.0" encoding="UTF-8"?>
<svg id="Layer_2" xmlns="http://www.w3.org/2000/svg" version="1.1" viewBox="0 0 3563.1 3518.5">
  <!-- Generator: Adobe Illustrator 29.3.1, SVG Export Plug-In . SVG Version: 2.1.0 Build 151)  -->
  <defs>
    <style>
      .st0 {
        fill: #565656;
        stroke-miterlimit: 10;
        stroke-width: 40px;
      }

      .st0, .st1 {
        stroke: #fff;
      }

      .st1 {
        fill: none;
        stroke-linecap: round;
        stroke-linejoin: round;
        stroke-width: 121.5px;
      }
    </style>
  </defs>
  <g id="Icons">
    <g id="thumbs_down">
      <path class="st0" d="M242.2,1601.7c0,111.8,90.6,202.4,202.4,202.4h38.9c-111.8,0-202.4,90.6-202.4,202.4s90.6,202.4,202.4,202.4h944c-40.6,111.1-77.1,243.8-100.8,337-24.8,97.1-29.8,199-6.2,296.4,62.5,258.3,240.7,280.7,360.8,263.4,65.2-9.4,111.2-71.7,102.6-137.1-29.4-224,79.9-451.5,183.8-655.4,11.3-22.1,24.8-42.8,40.5-62.1l45.9-56.2c66-80.7,231.9-206.9,231.9-206.9l58.7-41.7c0,85.5,69.3,154.8,154.8,154.8h516.9c85.5,0,154.8-69.3,154.8-154.8V731.6c0-85.5-69.3-154.8-154.8-154.8h-516.9c-85.5,0-154.8,69.3-154.8,154.8v29.8l-24.5-17.8c-138.5-100.2-305-154.1-476-154.1H707.1c-111.8,0-202.4,90.6-202.4,202.4s90.6,202.4,202.4,202.4h-122.4c-111.8,0-202.4,90.6-202.4,202.4s90.6,202.4,202.4,202.4h-140.1c-111.8,0-202.4,90.6-202.4,202.4h0Z"/>
      <rect class="st1" x="2344.7" y="576.8" width="826.4" height="1524.4" rx="173.9" ry="173.9"/>
      <path class="st1" d="M2286,1988.2s-165.9,126.2-231.9,206.9l-45.9,56.2c-15.7,19.2-29.3,39.9-40.6,62.1-103.8,203.9-213.2,431.4-183.8,655.4h0c8.6,65.3-37.4,127.7-102.6,137.1-120,17.3-298.2-5.1-360.8-263.4-23.6-97.4-18.6-199.3,6.2-296.4,23.7-93.1,60.2-225.9,100.8-337H485.2c-111.5,0-204.4-91.3-204.2-202.8.2-111.6,90.8-202.1,202.4-202.1h-37.1c-111.5,0-204.4-91.3-204.2-202.8.2-111.6,90.8-202.1,202.4-202.1h140.1c-111.7,0-202.2-90.4-202.4-202.1-.2-111.5,92.6-202.8,204.2-202.8h120.7c-155.1,0-269.5-174.5-157.5-337.9,25.2-36.8,82.4-66.9,127-66.9h1167.6c170.9,0,337.5,53.9,476,154.1l24.5,17.8v1185l-58.7,41.7h0Z"/>
    </g>
  </g>
</svg>